<svg width="38" height="36" viewBox="0 0 38 36" fill="none" xmlns="http://www.w3.org/2000/svg">
<g filter="url(#filter0_d_703_373)">
<path d="M29.5455 6.29882C28.7674 5.95981 27.9664 5.65847 27.1469 5.39062C26.5346 5.19391 25.9177 5.02231 25.287 4.86746C23.2659 4.37778 21.139 4.11829 18.9429 4.11829C16.7469 4.11829 14.6246 4.37778 12.5989 4.86746C11.9682 5.02231 11.3513 5.19391 10.739 5.39062C10.6469 5.96818 10.5871 6.54575 10.5548 7.13587C10.5364 7.44558 10.5272 7.75529 10.5272 8.06919C10.5272 8.50446 10.5456 8.93135 10.5779 9.35825C10.6193 9.91489 10.6883 10.4632 10.785 11.0031C11.5539 15.3683 14.0123 19.2229 17.5296 22.0061C16.8804 22.4121 16.1991 22.7804 15.4947 23.111C12.0741 20.2232 9.63407 16.3937 8.69029 12.0829C8.57059 11.5262 8.47392 10.9612 8.40025 10.392C8.30818 9.63866 8.25754 8.87276 8.25754 8.09849C8.25754 8.09011 8.25754 8.07756 8.25754 8.06919C8.25754 7.47069 8.28516 6.88057 8.34041 6.29882C8.41867 5.48269 8.54758 4.67912 8.72712 3.89229C9.56041 3.58258 10.4121 3.30635 11.2822 3.07198C11.9314 2.8962 12.5897 2.74134 13.2573 2.6116C15.0896 2.25166 16.9909 2.05914 18.9429 2.05914C20.895 2.05914 22.7963 2.25166 24.6286 2.6116C25.2962 2.74134 25.9545 2.8962 26.6037 3.07198C27.4738 3.30635 28.3255 3.58258 29.1588 3.89229C29.3383 4.67912 29.4672 5.48269 29.5455 6.29882Z" fill="#5CC133"/>
<path d="M29.1956 12.0828C28.2518 16.3937 25.8118 20.2232 22.3912 23.111C21.9354 23.4919 21.4658 23.8602 20.9778 24.2076C20.3287 24.6721 19.6473 25.1032 18.9429 25.5008C18.3905 25.8147 17.8242 26.1077 17.2441 26.3755C16.4615 26.7355 15.6558 27.0577 14.8271 27.334C14.1228 26.8485 13.4414 26.3337 12.7923 25.7854C12.3043 25.3753 11.8301 24.9484 11.3789 24.5047C8.55678 21.755 6.43443 18.4068 5.26506 14.6944C5.08091 14.1043 4.91978 13.5058 4.78166 12.899C4.60672 12.1038 4.46861 11.2918 4.38113 10.4715C5.0671 9.94836 5.7899 9.46286 6.54492 9.01923C6.58175 9.81443 6.66462 10.5971 6.79352 11.3672C6.8856 11.9531 7.0099 12.5307 7.15722 13.0999C8.2207 17.2349 10.564 20.9263 13.7959 23.81C14.2471 24.2159 14.7213 24.6052 15.2093 24.9777C15.7893 24.7433 16.3556 24.488 16.9081 24.2076C17.6124 23.8476 18.2938 23.4542 18.9429 23.0231C19.4309 22.7051 19.9005 22.3619 20.3563 22.0061C23.8736 19.2229 26.332 15.3683 27.1009 11.003C27.8283 11.3253 28.5234 11.6811 29.1956 12.0828Z" fill="#5CC133"/>
<path d="M33.5047 10.4715C33.4173 11.2918 33.2791 12.1038 33.0996 12.899C32.9661 13.5058 32.8049 14.1043 32.6208 14.6944C31.4514 18.4068 29.3291 21.755 26.507 24.5047C26.0558 24.9483 25.5816 25.3752 25.0936 25.7854C24.4445 26.3337 23.7631 26.8485 23.0587 27.334C22.23 27.0577 21.4244 26.7355 20.6417 26.3755C21.3507 25.9403 22.0275 25.4757 22.6812 24.9776C23.1646 24.6052 23.6388 24.2159 24.09 23.81C27.3218 20.9263 29.6652 17.2349 30.7286 13.0999C30.876 12.5307 31.0003 11.9531 31.0923 11.3672C30.5767 11.0156 30.0381 10.6933 29.4856 10.392C28.7858 10.0069 28.0584 9.66375 27.308 9.35822C26.7556 9.13222 26.1847 8.92714 25.6046 8.74717C23.5191 8.09427 21.277 7.74271 18.9429 7.74271C16.6088 7.74271 14.3668 8.09427 12.2766 8.74717C12.2674 8.52117 12.2628 8.29517 12.2628 8.06916C12.2628 7.56274 12.2904 7.0647 12.3365 6.57083C14.4266 5.99745 16.6456 5.68774 18.9429 5.68774C21.2402 5.68774 23.4592 5.99745 25.5494 6.57083C26.1525 6.73825 26.751 6.92658 27.331 7.13585C28.1183 7.42044 28.8871 7.74271 29.6283 8.09846C30.2176 8.38306 30.7885 8.69277 31.3409 9.01922C32.096 9.46286 32.8188 9.94835 33.5047 10.4715Z" fill="#5CC133"/>
</g>
<defs>
<filter id="filter0_d_703_373" x="-1" y="0" width="41" height="38" filterUnits="userSpaceOnUse" color-interpolation-filters="sRGB">
<feFlood flood-opacity="0" result="BackgroundImageFix"/>
<feColorMatrix in="SourceAlpha" type="matrix" values="0 0 0 0 0 0 0 0 0 0 0 0 0 0 0 0 0 0 127 0" result="hardAlpha"/>
<feOffset dy="4"/>
<feGaussianBlur stdDeviation="2"/>
<feComposite in2="hardAlpha" operator="out"/>
<feColorMatrix type="matrix" values="0 0 0 0 0 0 0 0 0 0 0 0 0 0 0 0 0 0 0.25 0"/>
<feBlend mode="normal" in2="BackgroundImageFix" result="effect1_dropShadow_703_373"/>
<feBlend mode="normal" in="SourceGraphic" in2="effect1_dropShadow_703_373" result="shape"/>
</filter>
</defs>
</svg>
